<svg xmlns="http://www.w3.org/2000/svg" viewBox="0 0 512 360">
  <defs>
    <linearGradient id="bg" x1="0" y1="0" x2="1" y2="1"><stop stop-color="#13161a"/><stop offset="1" stop-color="#2b2018"/></linearGradient>
    <linearGradient id="paper" x1="0" y1="0" x2="1" y2="1"><stop stop-color="#dfcfaa"/><stop offset="1" stop-color="#a28a62"/></linearGradient>
    <linearGradient id="env" x1="0" y1="0" x2="1" y2="1"><stop stop-color="#6a4230"/><stop offset="1" stop-color="#2f1c16"/></linearGradient>
    <filter id="shadow"><feGaussianBlur stdDeviation="8"/></filter>
  </defs>
  <rect width="512" height="360" fill="url(#bg)"/>
  <ellipse cx="257" cy="300" rx="176" ry="25" fill="#000" opacity=".44" filter="url(#shadow)"/>
  <g transform="rotate(-5 249 191)">
    <rect x="92" y="135" width="326" height="146" rx="8" fill="url(#env)" stroke="#946044" stroke-width="5"/>
    <path d="M105 147 L255 228 L406 147" fill="#5b3728" stroke="#a86f4b" stroke-width="4"/>
    <path d="M103 270 L212 190 Q250 166 289 190 L406 270" fill="#44281e" opacity=".82"/>
  </g>
  <g transform="rotate(7 305 147)">
    <rect x="228" y="70" width="155" height="180" rx="5" fill="url(#paper)" stroke="#6f5a3e" stroke-width="4"/>
    <path d="M249 107 H355 M247 132 H339 M248 157 H361 M248 182 H330" stroke="#594933" stroke-width="5" stroke-linecap="round" opacity=".5"/>
    <circle cx="345" cy="216" r="18" fill="#642a22" opacity=".82"/><circle cx="345" cy="216" r="10" fill="none" stroke="#bd735a" stroke-width="3"/>
  </g>
  <g transform="rotate(-12 178 142)">
    <rect x="125" y="74" width="112" height="143" rx="5" fill="#c8b68e" stroke="#67553a" stroke-width="4"/>
    <path d="M143 109 H218 M143 132 H204 M143 155 H221 M143 179 H190" stroke="#554630" stroke-width="4" stroke-linecap="round" opacity=".48"/>
    <path d="M198 190 q20 -9 28 8 q-5 14 -23 13" fill="none" stroke="#372b22" stroke-width="4" opacity=".55"/>
  </g>
  <rect x="94" y="286" width="325" height="8" rx="4" fill="#d6a55a" opacity=".23"/>
</svg>