<svg xmlns="http://www.w3.org/2000/svg" viewBox="0 0 512 360">
<defs>
  <linearGradient id="body" x1="0" y1="0" x2="1" y2="1"><stop stop-color="#4a515a"/><stop offset=".45" stop-color="#2d333a"/><stop offset="1" stop-color="#1d2126"/></linearGradient>
  <radialGradient id="glass"><stop stop-color="#9fdcff" stop-opacity=".72"/><stop offset=".45" stop-color="#3d6c86" stop-opacity=".75"/><stop offset="1" stop-color="#101923"/></radialGradient>
  <linearGradient id="leather" x1="0" y1="0" x2="0" y2="1"><stop stop-color="#3a302b"/><stop offset="1" stop-color="#201c1a"/></linearGradient>
  <filter id="shadow" x="-20%" y="-20%" width="140%" height="150%"><feDropShadow dx="0" dy="10" stdDeviation="8" flood-color="#090b0e" flood-opacity=".6"/></filter>
</defs>
<g filter="url(#shadow)" stroke="#12151a" stroke-linejoin="round">
  <path d="M106 129 393 118l21 24-5 143-304 7-16-149z" fill="url(#body)" stroke-width="9"/>
  <path d="m153 126 31-55h119l42 48-38 4-24-29h-78l-18 37z" fill="#333940" stroke-width="9"/>
  <path d="M111 175 405 164l-2 53-291 9z" fill="url(#leather)" stroke-width="6"/>
  <circle cx="257" cy="211" r="86" fill="#181d22" stroke-width="9"/>
  <circle cx="257" cy="211" r="67" fill="#4c5662" stroke-width="8"/>
  <circle cx="257" cy="211" r="46" fill="url(#glass)" stroke-width="7"/>
  <circle cx="244" cy="196" r="13" fill="#d8f1ff" opacity=".5" stroke="none"/>
  <path d="M211 154c29-18 71-18 96 2" fill="none" stroke="#707a84" stroke-width="5" opacity=".55"/>
  <rect x="330" y="137" width="52" height="34" rx="7" fill="#c99a42" stroke-width="6"/>
  <circle cx="135" cy="153" r="12" fill="#171b20" stroke-width="6"/>
  <rect x="154" y="98" width="54" height="19" rx="6" fill="#6d747c" stroke-width="5"/>
  <path d="M125 269 390 262" stroke="#5e6670" stroke-width="5" opacity=".5"/>
  <path d="M402 149c28 14 35 35 17 61" fill="none" stroke="#6c4d35" stroke-width="10"/>
</g>
</svg>