<svg xmlns="http://www.w3.org/2000/svg" viewBox="0 0 512 360"><defs><linearGradient id="sleeve" x1="0" y1="0" x2="1" y2="1"><stop stop-color="#9b4f45"/><stop offset=".58" stop-color="#54342f"/><stop offset="1" stop-color="#251e1d"/></linearGradient><radialGradient id="vinyl"><stop stop-color="#4b4b4c"/><stop offset=".45" stop-color="#17191c"/><stop offset="1" stop-color="#080a0d"/></radialGradient><filter id="s"><feDropShadow dx="0" dy="10" stdDeviation="9" flood-opacity=".4"/></filter></defs><g filter="url(#s)" stroke="#292421" stroke-width="6" stroke-linejoin="round" transform="rotate(-5 256 180)"><rect x="105" y="59" width="251" height="251" rx="4" fill="url(#sleeve)"/><path d="M126 85h208v141H126z" fill="#d3aa5a"/><path d="m145 199 54-82 45 52 42-66 38 96z" fill="#3f6870"/><circle cx="217" cy="146" r="31" fill="#bd6d45"/><path d="M129 250h202" stroke="#c7b98e" stroke-width="9" stroke-linecap="round"/><circle cx="348" cy="195" r="116" fill="url(#vinyl)" stroke="#15171a" stroke-width="7"/><circle cx="348" cy="195" r="40" fill="#ad6249"/><circle cx="348" cy="195" r="10" fill="#d3bd80"/><g fill="none" stroke="#747577" stroke-width="2" opacity=".32"><circle cx="348" cy="195" r="94"/><circle cx="348" cy="195" r="80"/><circle cx="348" cy="195" r="66"/><circle cx="348" cy="195" r="54"/></g></g><path d="M155 277c20-25 42-8 55-30 13 20 33 3 49-16 10 18 23 16 38 0" fill="none" stroke="#efe4c9" stroke-width="5" stroke-linecap="round" stroke-linejoin="round"/><path d="M265 93c31-19 75-24 111-12" stroke="#fff" stroke-opacity=".18" stroke-width="4" fill="none" stroke-linecap="round"/></svg>