<svg xmlns="http://www.w3.org/2000/svg" viewBox="0 0 480 600"><defs><linearGradient id="bg" x1="0" y1="0" x2="1" y2="1"><stop stop-color="#2a2134"/><stop offset="1" stop-color="#11151c"/></linearGradient><linearGradient id="suit" x1="0" y1="0" x2="1" y2="1"><stop stop-color="#36404b"/><stop offset="1" stop-color="#20252d"/></linearGradient><linearGradient id="skin" x1="0" y1="0" x2="1" y2="1"><stop stop-color="#d8a17e"/><stop offset="1" stop-color="#a96e55"/></linearGradient><linearGradient id="gold" x1="0" y1="0" x2="1" y2="1"><stop stop-color="#f0c45e"/><stop offset="1" stop-color="#9b6329"/></linearGradient></defs><rect width="480" height="600" rx="36" fill="url(#bg)"/><circle cx="360" cy="96" r="112" fill="#b576ff" opacity=".07"/><path d="M70 600c15-137 67-211 167-211 101 0 157 74 171 211z" fill="url(#suit)" stroke="#17191e" stroke-width="12"/><path d="M189 411h108l24 189H164z" fill="#161a20"/><path d="M157 139c18-90 151-99 182-6l-7 119c-8 80-55 118-105 112-51-6-85-54-78-130z" fill="url(#skin)" stroke="#17191e" stroke-width="10"/><path d="M157 146c11-82 65-120 127-107 45 9 72 38 79 75-34-9-58-27-78-49-26 41-67 65-128 81z" fill="#242129" stroke="#17191e" stroke-width="10"/><path d="M185 198c17-12 37-11 52-1m35 2c17-13 37-11 51 1" fill="none" stroke="#4a302b" stroke-width="9" stroke-linecap="round"/><ellipse cx="214" cy="222" rx="8" ry="11" fill="#29323b"/><ellipse cx="298" cy="222" rx="8" ry="11" fill="#29323b"/><path d="M249 230c-5 24 0 38 14 41" fill="none" stroke="#935f4d" stroke-width="7" stroke-linecap="round"/><path d="M211 291c25 10 50 8 75-6" fill="none" stroke="#71433d" stroke-width="8" stroke-linecap="round"/><path d="M151 195c-22 3-35 23-29 49 5 23 20 35 40 33m170-82c23 4 35 23 29 49-5 23-20 36-41 33" fill="url(#skin)" stroke="#17191e" stroke-width="8"/><path d="M107 487c55-19 108-15 159 9M372 484c-57-16-109-11-158 13" fill="none" stroke="#2a313b" stroke-width="45" stroke-linecap="round"/><circle cx="159" cy="498" r="25" fill="url(#gold)" stroke="#17191e" stroke-width="7"/><circle cx="159" cy="498" r="14" fill="#2c3036" stroke="#f0c45e" stroke-width="4"/><path d="M159 498v-9m0 9 8 6" stroke="#f2d078" stroke-width="3" stroke-linecap="round"/></svg>